{"title":"Match of the Day 2 - S10E04 - 30th August 2015 - hdtv x264","uid":12315225,"size":628319072,"categoryP":"video","categoryS":"tv_shows","magnet":"?xt=urn:btih:80ff6fe20240c506644eca7f1f70d936b895530b&amp;dn=Match+of+the+Day+2+-+S10E04+-+30th+August+2015+-+hdtv+x264&amp;tr=udp%3A%2F%2Ftracker.openbittorrent.com%3A80&amp;tr=udp%3A%2F%2Fopen.demonii.com%3A1337&amp;tr=udp%3A%2F%2Ftracker.coppersurfer.tk%3A6969&amp;tr=udp%3A%2F%2Fexodus.desync.com%3A6969","seeders":1,"leechers":0,"uploader":"rugbybill","files":2,"time":1440981833,"description":"SPORT: Match of the Day 2\nOn: BBC 1 HD     \nDate: Sunday 30th August 2015 \nTime: 22:30 to 23:30 \n\nMark Chapman presents highlights of the day's two Premier League matches, in which Swansea host Manchester United and Southampton play Norwich. United have spent heavily this summer, with Memphis Depay, Bastian Schweinsteiger, Matteo Darmian and Morgan Schneiderlin arriving to boost the Red Devils' title chances. However, Louis van Gaal's side face a tough task against a talented Swansea side who beat them at home and away last season. Southampton were one of the Premier League's surprise packages last term, ending seventh in the table to qualify for the Europa League. They face a Norwich side who won promotion from the Championship in 2014-15, just a year after dropping out of the top flight. There's also a chance to see all the goals and major incidents from Saturday's games.\n\n\nGeneral\nComplete name               : Match.of.the.Day.2-S10E04-2015.08.30-hdtv.x264.mp4\nFormat                      : MPEG-4\nFormat profile              : Base Media / Version 2\nCodec ID                    : mp42\nFile size                   : 599 MiB\nDuration                    : 1h 0mn\nOverall bit rate mode       : Variable\nOverall bit rate            : 1 389 Kbps\nWriting application         : #YGFD                     \n\nVideo\nID                          : 1\nFormat                      : AVC\nFormat/Info                 : Advanced Video Codec\nFormat profile              : &lt;a class=&quot;__cf_email__&quot; href=&quot;/cdn-cgi/l/email-protection&quot; data-cfemail=&quot;2a62434d426a6619041b&quot;&gt;[email&amp;#160;protected]&lt;/a&gt;&lt;script data-cfhash='f9e31' type=&quot;text/javascript&quot;&gt;\n/* &lt;![CDATA[ */!function(){try{var t=&quot;currentScript&quot;in document?document.currentScript:function(){for(var t=document.getElementsByTagName(&quot;script&quot;),e=t.length;e--;)if(t[e].getAttribute(&quot;data-cfhash&quot;))return t[e]}();if(t&amp;&amp;t.previousSibling){var e,r,n,i,c=t.previousSibling,a=c.getAttribute(&quot;data-cfemail&quot;);if(a){for(e=&quot;&quot;,r=parseInt(a.substr(0,2),16),n=2;a.length-n;n+=2)i=parseInt(a.substr(n,2),16)^r,e+=String.fromCharCode(i);e=document.createTextNode(e),c.parentNode.replaceChild(e,c)}t.parentNode.removeChild(t);}}catch(u){}}()/* ]]&gt; */&lt;/script&gt;\nFormat settings, CABAC      : Yes\nFormat settings, ReFrames   : 8 frames\nCodec ID                    : avc1\nCodec ID/Info               : Advanced Video Coding\nDuration                    : 1h 0mn\nBit rate                    : 1 290 Kbps\nWidth                       : 704 pixels\nHeight                      : 400 pixels\nDisplay aspect ratio        : 16:9\nFrame rate mode             : Constant\nFrame rate                  : 25.000 fps\nColor space                 : YUV\nChroma subsampling          : 4:2:0\nBit depth                   : 8 bits\nScan type                   : Progressive\nBits/(Pixel*Frame)          : 0.183\nStream size                 : 556 MiB (93%)\nWriting library             : x264 core 130 r2273 b3065e6\nEncoding settings           : cabac=1 / ref=8 / deblock=1:0:0 / analyse=0x3:0x133 / me=umh / subme=9 / psy=1 / psy_rd=1.00:0.00 / mixed_ref=1 / me_range=16 / chroma_me=1 / trellis=2 / 8x8dct=1 / cqm=0 / deadzone=21,11 / fast_pskip=1 / chroma_qp_offset=-2 / threads=24 / lookahead_threads=2 / sliced_threads=0 / nr=0 / decimate=1 / interlaced=0 / bluray_compat=0 / constrained_intra=0 / bframes=3 / b_pyramid=2 / b_adapt=2 / b_bias=0 / direct=3 / weightb=1 / open_gop=0 / weightp=2 / keyint=250 / keyint_min=25 / scenecut=40 / intra_refresh=0 / rc_lookahead=60 / rc=abr / mbtree=1 / bitrate=1290 / ratetol=1.0 / qcomp=0.60 / qpmin=0 / qpmax=69 / qpstep=4 / ip_ratio=1.40 / aq=1:1.00\n\nAudio\nID                          : 2\nFormat                      : AAC\nFormat/Info                 : Advanced Audio Codec\nFormat profile              : LC\nCodec ID                    : 40\nDuration                    : 1h 0mn\nBit rate mode               : Variable\nBit rate                    : 96.0 Kbps\nMaximum bit rate            : 186 Kbps\nChannel(s)                  : 2 channels\nChannel positions           : Front: L R\nSampling rate               : 48.0 KHz\nCompression mode            : Lossy\nStream size                 : 41.4 MiB (7%)\nTitle                       : Stereo\nLanguage                    : English","torrent":{"xt":"urn:btih:80ff6fe20240c506644eca7f1f70d936b895530b","amp;dn":"Match+of+the+Day+2+-+S10E04+-+30th+August+2015+-+hdtv+x264","amp;tr":["udp%3A%2F%2Ftracker.openbittorrent.com%3A80","udp%3A%2F%2Fopen.demonii.com%3A1337","udp%3A%2F%2Ftracker.coppersurfer.tk%3A6969","udp%3A%2F%2Fexodus.desync.com%3A6969"],"infoHash":"80ff6fe20240c506644eca7f1f70d936b895530b","infoHashBuffer":{"type":"Buffer","data":[128,255,111,226,2,64,197,6,100,78,202,127,31,112,217,54,184,149,83,11]},"announce":[],"urlList":[]}}